<?xml version="1.0" encoding="UTF-8" standalone="no"?>
<svg width="51px" height="50px" viewBox="0 0 51 50" version="1.1" xmlns="http://www.w3.org/2000/svg" xmlns:xlink="http://www.w3.org/1999/xlink" xmlns:sketch="http://www.bohemiancoding.com/sketch/ns">
    <!-- Generator: Sketch 3.0.4 (8053) - http://www.bohemiancoding.com/sketch -->
    <title>BFI 2</title>
    <desc>Created with Sketch.</desc>
    <defs></defs>
    <g id="Page-1" stroke="none" stroke-width="1" fill="none" fill-rule="evenodd" sketch:type="MSPage">
        <g id="N1---NAVIGATION-(ALL-BREAKPOINTS)-2" sketch:type="MSArtboardGroup" transform="translate(-1571.000000, -1398.000000)" fill="#FFFFFF">
            <g id="Rectangle-95-+-BFI-Player---Classic-+-Welcome-+-Line-3" sketch:type="MSLayerGroup" transform="translate(426.000000, 1352.000000)">
                <g id="BFI-2" transform="translate(1145.000000, 46.000000)" sketch:type="MSShapeGroup">
                    <path d="M14.6622222,8.18206522 C14.6877778,6.79425466 14.1844444,6.0640528 13.0644444,5.79396351 L12.1177778,5.79396351 C12.1177778,5.77581522 10.4611111,5.79396351 10.4611111,5.79396351 L10.4022222,10.171972 C10.4022222,10.171972 14.6744444,10.767663 14.6622222,8.18206522" id="Fill-1"></path>
                    <path d="M12.7688889,11.9344915 L10.4022222,11.9344915 L10.3422222,16.6519798 L12.8866667,16.6519798 C14.1966667,16.6167508 15.3244444,15.6986607 15.3722222,14.2083657 C15.4188889,12.7170031 13.8377778,11.9056677 12.7688889,11.9344915" id="Fill-2"></path>
                    <path d="M41.7011111,33.1946817 C41.6155556,33.1946817 41.53,33.1957492 41.4455556,33.1989519 C42.2944444,31.3937306 42.7666667,29.3920807 42.7666667,27.2826087 C42.7666667,19.3400621 36.0644444,12.9006211 27.7966667,12.9006211 C26.2222222,12.9006211 24.7044444,13.1344138 23.28,13.5667702 C23.41,12.8995536 23.4777778,12.210986 23.4777778,11.5074728 C23.4777778,5.37014752 18.2988889,0.394312888 11.9111111,0.394312888 C5.52222222,0.394312888 0.343333333,5.37014752 0.343333333,11.5074728 C0.343333333,17.6458657 5.52222222,22.6217003 11.9111111,22.6217003 C12.5111111,22.6217003 13.1022222,22.5768634 13.6777778,22.4925272 C13.1277778,23.9913626 12.8277778,25.6033579 12.8277778,27.2826087 C12.8277778,35.2262228 19.53,41.6656638 27.7966667,41.6656638 C29.6422222,41.6656638 31.41,41.3443323 33.0422222,40.7571817 C33.0166667,41.0187306 33.0033333,41.2834821 33.0033333,41.5514363 C33.0033333,46.1664402 36.8977778,49.908191 41.7011111,49.908191 C46.5044444,49.908191 50.3988889,46.1664402 50.3988889,41.5514363 C50.3988889,36.9364325 46.5044444,33.1946817 41.7011111,33.1946817 L41.7011111,33.1946817 Z M17.9755556,14.4357531 C17.9588889,16.8793672 15.3066667,18.3333657 14.1288889,18.3013393 L13.5966667,18.3013393 C13.5966667,18.3194876 6.49666667,18.3013393 6.49666667,18.3013393 L6.49666667,16.6519798 L8.03555556,16.6519798 C8.03555556,16.1790567 8.09444444,6.41954581 8.09444444,5.85161102 C7.99555556,5.90819099 8.05444444,5.81317935 8.03555556,5.79396351 L6.49666667,5.79396351 L6.49666667,4.14567158 L12.9455556,4.14567158 C13.2222222,4.14567158 13.8922222,4.18410326 13.8922222,4.2033191 C15.73,4.27270963 16.7011111,5.38829581 17.0877778,6.87432065 L17.0877778,7.44332298 C17.1077778,7.44332298 17.1077778,8.06783773 17.0877778,8.06783773 C17.1355556,9.21545031 16.0522222,10.1153921 16.0522222,10.1153921 C15.2766667,10.8189053 14.34,10.8744177 14.1888889,10.9107143 C15.98,10.9053766 17.5733333,11.8747089 17.9755556,13.6959433 C17.9611111,14.1282997 17.99,14.0044643 17.9755556,14.4357531 L17.9755556,14.4357531 Z M35.4888889,23.0188276 L32.7666667,23.0188276 C32.7666667,22.8106561 32.7077778,21.0812306 32.7077778,20.2335986 L26.9688889,20.2335986 C26.9688889,21.7687306 26.9088889,26.0890916 26.9088889,26.0890916 L33.1222222,26.0890916 L33.1222222,28.5337733 L26.9088889,28.5337733 L26.9088889,34.8440411 L29.3355556,34.8440411 L29.3355556,37.1179154 L21.6433333,37.1179154 L21.6433333,34.8440411 L23.7144444,34.8440411 L23.7144444,20.2335986 L21.4666667,20.2335986 L21.4666667,17.9597244 L35.43,17.9597244 C35.37,18.054736 35.4688889,17.9981561 35.4888889,18.0163043 L35.4888889,23.0188276 L35.4888889,23.0188276 Z M44.0677778,37.6858502 L43.1211111,37.6858502 L43.0622222,45.1330551 L44.0677778,45.1330551 L44.0677778,46.6681871 L39.8077778,46.6681871 L39.8077778,45.1330551 L40.8133333,45.1330551 L40.7544444,37.6858502 L39.8077778,37.6858502 L39.8077778,36.1507182 L44.0677778,36.1507182 L44.0677778,37.6858502 L44.0677778,37.6858502 Z" id="Fill-3"></path>
                </g>
            </g>
        </g>
    </g>
</svg>