<?xml version="1.0" encoding="utf-8"?>
<!-- Generator: Adobe Illustrator 18.0.0, SVG Export Plug-In . SVG Version: 6.00 Build 0)  -->
<!DOCTYPE svg PUBLIC "-//W3C//DTD SVG 1.1//EN" "http://www.w3.org/Graphics/SVG/1.1/DTD/svg11.dtd">
<svg version="1.1" xmlns="http://www.w3.org/2000/svg" xmlns:xlink="http://www.w3.org/1999/xlink" x="0px" y="0px"
	 viewBox="0 0 144 18" preserveAspectRatio="xMinYMin" enable-background="new 0 0 144 18" xml:space="preserve" width="144" height="18">
<g id="Layer_2" display="none">
	<rect display="inline" fill-rule="evenodd" clip-rule="evenodd" width="144" height="18"/>
</g>
<g id="Layer_1">
	<g>
		<g>
			<path fill="#FFFFFF" d="M60.1,0.6h4.4v13.1h7.6v3.8h-12V0.6z"/>
			<path fill="#FFFFFF" d="M86.3,0.6l6.4,16.9h-4.5L87,14.2h-6.1l-1.2,3.3h-4.4l6.4-16.9H86.3z M82.2,10.5h3.5L84,5.8L82.2,10.5z"/>
			<path fill="#FFFFFF" d="M105,0.6h4.6l-6.1,10.9v6h-4.4v-6l-6-10.9h4.8l3.5,6.6L105,0.6z"/>
			<path fill="#FFFFFF" d="M125.3,0.6v3.8h-7.7V7h7.1v3.7h-7.1v2.9h7.7v3.8h-12.1V0.6H125.3z"/>
			<path fill="#FFFFFF" d="M134.1,11.9v5.6h-4.4V0.6h7.6c3.6,0,6.1,2.1,6.1,5.7c0,2.6-1.3,4.3-3.4,5.1l4,6h-4.9l-3.5-5.6H134.1z
				 M134.1,8.3h2.7c1.6,0,2.3-0.8,2.3-2s-0.7-2-2.3-2h-2.7V8.3z"/>
		</g>
		<g>
			<path fill="#FFFFFF" d="M13.4,12.7c0,3.1-2.1,4.7-5.6,4.7H0V0.6h7.2c3.5,0,5.6,1.6,5.6,4.6c0,1.8-1,3.1-2.3,3.6
				C12.2,9.2,13.4,10.8,13.4,12.7z M6.7,7.2c1.3,0,2-0.5,2-1.5S8,4.2,6.7,4.2H4.2v3.1H6.7z M4.2,13.8h3c1.2,0,1.9-0.7,1.9-1.6
				c0-1-0.7-1.6-1.9-1.6h-3V13.8z"/>
			<path fill="#FFFFFF" d="M17.5,17.4V0.6h11.9v3.8h-7.5v3.4h6.9v3.7h-6.9v6H17.5z"/>
			<g>
				<path fill="#FFFFFF" d="M49.9,0.6h-7.4v5.3l4.4,2.6V4.3h2.6c1.6,0,2.3,0.8,2.3,2.1c0,1.3-0.7,2.1-2.3,2.1h-2.6l-4.4,3v6h4.4
					v-5.2h3c3.7,0,6.1-2.1,6.1-5.8C56,2.6,53.5,0.6,49.9,0.6z"/>
				<polygon fill="#FFFFFF" points="33.7,0.6 33.7,17.4 38.1,14.4 38.1,3.2 				"/>
			</g>
		</g>
	</g>
</g>
</svg>
