<?xml version="1.0" encoding="UTF-8" standalone="no"?><!DOCTYPE svg PUBLIC "-//W3C//DTD SVG 1.1//EN"
        "http://www.w3.org/Graphics/SVG/1.1/DTD/svg11.dtd">
<svg width="100%" height="100%" viewBox="0 0 1140 400" version="1.1" xmlns="http://www.w3.org/2000/svg" xmlns:xlink="http://www.w3.org/1999/xlink" xml:space="preserve" xmlns:serif="http://www.serif.com/" style="fill-rule:evenodd;clip-rule:evenodd;stroke-linejoin:round;stroke-miterlimit:1.41421;"><path d="M60,300l60,100l-120,0l60,-100Z" style="fill:#b35738;"/><path d="M120,200l60,100l-120,0l60,-100Z" style="fill:#cf7038;"/><path d="M180,100l60,100l-120,0l60,-100Z" style="fill:#c46f3c;"/><path d="M240,0l60,100l-120,0l60,-100Z" style="fill:#d5a246;"/><path d="M360,0l60,100l-120,0l60,-100Z" style="fill:#ddc55e;"/><path d="M480,0l60,100l-120,0l60,-100Z" style="fill:#d8c571;"/><path d="M420,100l60,100l-120,0l60,-100Z" style="fill:#d5b74c;"/><path d="M180,300l60,100l-120,0l60,-100Z" style="fill:#da7535;"/><path d="M300,300l60,100l-120,0l60,-100Z" style="fill:#dd8d3d;"/><path d="M360,200l60,100l-120,0l60,-100Z" style="fill:#dda446;"/><path d="M420,300l60,100l-120,0l60,-100Z" style="fill:#826c85;"/><path d="M480,200l60,100l-120,0l60,-100Z" style="fill:#b8415b;"/><path d="M540,100l60,100l-120,0l60,-100Z" style="fill:#db3846;"/><path d="M600,0l60,100l-120,0l60,-100Z" style="fill:#e65041;"/><path d="M660,100l60,100l-120,0l60,-100Z" style="fill:#e92d41;"/><path d="M540,300l60,100l-120,0l60,-100Z" style="fill:#ce5772;"/><path d="M660,300l60,100l-120,0l60,-100Z" style="fill:#e7536b;"/><path d="M720,200l60,100l-120,0l60,-100Z" style="fill:#da2451;"/><path d="M780,300l60,100l-120,0l60,-100Z" style="fill:#c74a62;"/><path d="M840,200l60,100l-120,0l60,-100Z" style="fill:#02aeb0;"/><path d="M900,300l60,100l-120,0l60,-100Z" style="fill:#08a4a5;"/><path d="M960,400l60,-100l-120,0l60,100Z" style="fill:#0a969f;"/><path d="M840,400l60,-100l-120,0l60,100Z" style="fill:#05a9a9;"/><path d="M720,400l60,-100l-120,0l60,100Z" style="fill:#e62e4f;"/><path d="M600,400l60,-100l-120,0l60,100Z" style="fill:#e23a57;"/><path d="M480,400l60,-100l-120,0l60,100Z" style="fill:#a7506b;"/><path d="M240,400l60,-100l-120,0l60,100Z" style="fill:#dc8b3a;"/><path d="M360,400l60,-100l-120,0l60,100Z" style="fill:#dd9442;"/><path d="M120,400l60,-100l-120,0l60,100Z" style="fill:#cf6636;"/><path d="M180,300l60,-100l-120,0l60,100Z" style="fill:#d6883c;"/><path d="M240,200l60,-100l-120,0l60,100Z" style="fill:#d08a42;"/><path d="M300,100l60,-100l-120,0l60,100Z" style="fill:#ddbb49;"/><path d="M420,100l60,-100l-120,0l60,100Z" style="fill:#d1bd56;"/><path d="M480,200l60,-100l-120,0l60,100Z" style="fill:#d6bf61;"/><path d="M420,300l60,-100l-120,0l60,100Z" style="fill:#d9af48;"/><path d="M540,300l60,-100l-120,0l60,100Z" style="fill:#d1354f;"/><path d="M600,200l60,-100l-120,0l60,100Z" style="fill:#e53843;"/><path d="M660,300l60,-100l-120,0l60,100Z" style="fill:#d80b2c;"/><path d="M780,100l60,-100l-120,0l60,100Z" style="fill:#128c83;"/><path d="M900,100l60,-100l-120,0l60,100Z" style="fill:#12617a;"/><path d="M960,200l60,-100l-120,0l60,100Z" style="fill:#09889a;"/><path d="M900,300l60,-100l-120,0l60,100Z" style="fill:#03a4ae;"/><path d="M1080,400l60,-100l-120,0l60,100Z" style="fill:#107a8e;"/><path d="M1020,300l60,100l-120,0l60,-100Z" style="fill:#0d8b96;"/><path d="M900,100l60,100l-120,0l60,-100Z" style="fill:#04a1a9;"/><path d="M960,0l60,100l-120,0l60,-100Z" style="fill:#125776;"/><path d="M840,0l60,100l-120,0l60,-100Z" style="fill:#0d8088;"/><path d="M720,0l60,100l-120,0l60,-100Z" style="fill:#169b8c;"/></svg>
